# Blender v2.78 (sub 0) OBJ File: ''
# www.blender.org
mtllib scene2.mtl
o Cube
v 1.000000 -1.000000 -1.000000
v 1.000000 -1.000000 1.000000
v -1.000000 -1.000000 1.000000
v -1.000000 -1.000000 -1.000000
v 1.000000 1.000000 -0.999999
v 0.999999 1.000000 1.000001
v -1.000000 1.000000 1.000000
v -1.000000 1.000000 -1.000000
vn 0.0000 -1.0000 0.0000
vn 1.0000 0.0000 0.0000
vn -0.0000 -0.0000 1.0000
vn -1.0000 -0.0000 -0.0000
vn 0.0000 0.0000 -1.0000
usemtl Material
s off
f 8//3 4//3 1//3
f 8//3 1//3 5//3
f 6//4 5//4 2//4
f 7//5 6//5 3//5
f 5//4 1//4 2//4
f 4//2 8//2 3//2
f 6//5 2//5 3//5
f 3//1 4//1 1//1
f 8//2 7//2 3//2
f 3//1 1//1 2//1
