# Blender v2.78 (sub 0) OBJ File: ''
# www.blender.org
mtllib scene1.mtl
o Cube
v 1.000000 -1.000000 -1.000000
v 1.000000 -1.000000 1.000000
v -1.000000 -1.000000 1.000000
v -1.000000 -1.000000 -1.000000
v 1.000000 1.000000 -0.999999
v 0.999999 1.000000 1.000001
v -1.000000 1.000000 1.000000
v -1.000000 1.000000 -1.000000
v 0.000000 -1.000000 -0.000000
v 1.000000 0.000000 0.000000
v -0.000000 -0.000000 1.000000
v -1.000000 -0.000000 -0.000000
v 0.000000 0.000000 -1.000000
vn 1.0000 -0.0000 0.0000	
vn 0.0000 -1.0000 0.0000
vn -0.0000 -0.0000 1.0000
vn -1.0000 -0.0000 -0.0000
vn 0.0000 0.0000 -1.0000
usemtl Material
s off
f 1//1 5//1 10//1
f 1//2 2//2 9//2
f 2//3 6//3 11//3
f 3//4 7//4 12//4
f 5//5 1//5 13//5
f 2//2 3//2 9//2
f 3//2 4//2 9//2
f 4//2 1//2 9//2
f 5//1 6//1 10//1
f 6//1 2//1 10//1
f 2//1 1//1 10//1
f 6//3 7//3 11//3
f 7//3 3//3 11//3
f 3//3 2//3 11//3
f 7//4 8//4 12//4
f 8//4 4//4 12//4
f 4//4 3//4 12//4
f 1//5 4//5 13//5
f 4//5 8//5 13//5
f 8//5 5//5 13//5
